<svg height="512" viewBox="0 0 512 512" width="512" xmlns="http://www.w3.org/2000/svg"><g id="Flat"><g><path d="m24 290.178v44.457a10 10 0 0 0 7.436 9.666l103.728 27.518a24 24 0 0 1 46.883 10.3l256.211 65.57a10 10 0 0 0 12.181-7.262l37.561-150.249z" fill="#fac850"/><path d="m24 330.178h454l10-40h-464z" fill="#f29a49"/><path d="m206.634 66.178a24 24 0 1 1 -45.268 0h-127.366a10 10 0 0 0 -10 10v238h136a24 24 0 0 1 48 0h270a10 10 0 0 0 10-10v-228a10 10 0 0 0 -10-10z" fill="#fa5d3f"/><g fill="#d3463d"><path d="m176 98.178h16v40h-16z"/><path d="m176 154.178h16v16h-16z"/><path d="m176 186.178h16v16h-16z"/><path d="m176 218.178h16v16h-16z"/><path d="m176 250.178h16v40h-16z"/></g><path d="m478 314.178h-134l144-128v118a10 10 0 0 1 -10 10z" fill="#fac850"/><path d="m232 98.178h204a20 20 0 0 1 20 20v20a0 0 0 0 1 0 0h-204a20 20 0 0 1 -20-20v-20a0 0 0 0 1 0 0z" fill="#fac850"/><path d="m224 170.178h72v16h-72z" fill="#fffefd"/><path d="m312 170.178h144v16h-144z" fill="#fffefd"/><path d="m224 210.178h120v16h-120z" fill="#fffefd"/><path d="m360 210.178h48v16h-48z" fill="#fffefd"/><path d="m224 250.178h16v40h-16z" fill="#d3463d"/><path d="m256 250.178h16v40h-16z" fill="#d3463d"/><path d="m288 250.178h16v40h-16z" fill="#d3463d"/><path d="m320 250.178h16v40h-16z" fill="#d3463d"/><g fill="#fac850"><circle cx="72" cy="122.178" r="16"/><circle cx="136" cy="178.178" r="16"/><path d="m55.834 142.178h96.333v16h-96.333z" transform="matrix(.664 -.747 .747 .664 -77.339 128.139)"/></g><path d="m136 266.178h24v16h-24z" fill="#fffefd"/><path d="m48 266.178h72v16h-72z" fill="#fffefd"/><path d="m48 234.178h16v16h-16z" fill="#fffefd"/><path d="m80 234.178h80v16h-80z" fill="#fffefd"/><path d="m424 274.178h40v16h-40z" fill="#fa5d3f"/></g></g></svg>